<svg width="193" height="24" viewBox="0 0 193 24" fill="none" xmlns="http://www.w3.org/2000/svg">
<path d="M4.60802 23.776H4.28802C3.73336 23.776 3.20002 23.7227 2.68802 23.616C2.17602 23.5093 1.71736 23.3173 1.31202 23.04C0.928025 22.7627 0.608025 22.3787 0.352025 21.888C0.117358 21.3973 2.44379e-05 20.7573 2.44379e-05 19.968V4.384C2.44379e-05 3.616 0.117358 2.98667 0.352025 2.496C0.586691 2.00533 0.896025 1.62133 1.28002 1.344C1.66402 1.04533 2.10136 0.842667 2.59202 0.736C3.08269 0.608 3.58402 0.544001 4.09602 0.544001H4.60802V23.776ZM5.28002 10.464H8.12803C8.12803 10.9547 8.08536 11.4027 8.00002 11.808C7.93602 12.2133 7.79736 12.576 7.58402 12.896C7.39202 13.1947 7.12536 13.4293 6.78403 13.6C6.44269 13.7707 6.00536 13.856 5.47202 13.856H5.28002V10.464ZM11.616 20.704C11.616 21.0667 11.552 21.4293 11.424 21.792C11.296 22.1547 11.0934 22.4853 10.816 22.784C10.5387 23.0613 10.1974 23.296 9.79202 23.488C9.38669 23.68 8.90669 23.776 8.35203 23.776C7.94669 23.776 7.55203 23.712 7.16803 23.584C6.78402 23.4347 6.44269 23.232 6.14402 22.976C5.86669 22.72 5.63202 22.4213 5.44002 22.08C5.26936 21.7387 5.18402 21.3547 5.18402 20.928C5.18402 20.7573 5.18402 20.608 5.18402 20.48C5.20536 20.3307 5.24802 20.1707 5.31202 20C5.58936 20.256 5.93069 20.384 6.33602 20.384C6.65602 20.384 6.92269 20.288 7.13602 20.096C7.34936 19.8827 7.45603 19.5733 7.45603 19.168V17.6C7.62669 17.5573 7.84002 17.536 8.09602 17.536C8.39469 17.536 8.74669 17.5787 9.15203 17.664C9.55736 17.728 9.94136 17.8773 10.304 18.112C10.6667 18.3467 10.976 18.6773 11.232 19.104C11.488 19.5093 11.616 20.0427 11.616 20.704ZM11.616 3.584C11.616 4.26667 11.488 4.81067 11.232 5.216C10.976 5.62133 10.6667 5.94133 10.304 6.176C9.94136 6.41067 9.55736 6.57067 9.15203 6.656C8.74669 6.72 8.39469 6.752 8.09602 6.752C7.84002 6.752 7.62669 6.73067 7.45603 6.688V5.216C7.45603 4.78933 7.34936 4.46933 7.13602 4.256C6.94402 4.02133 6.67736 3.904 6.33602 3.904C5.93069 3.904 5.58936 4.032 5.31202 4.288C5.24802 4.11733 5.20536 3.968 5.18402 3.84C5.18402 3.69067 5.18402 3.53067 5.18402 3.36C5.18402 3.104 5.23736 2.816 5.34402 2.496C5.47202 2.15467 5.65336 1.84533 5.88802 1.568C6.14402 1.26933 6.46402 1.024 6.84802 0.832001C7.25336 0.618666 7.73336 0.511999 8.28802 0.511999C8.73602 0.511999 9.16269 0.586666 9.56802 0.736C9.97336 0.885333 10.3254 1.09867 10.624 1.376C10.9227 1.65333 11.1574 1.984 11.328 2.368C11.52 2.73067 11.616 3.136 11.616 3.584ZM18.1593 23.776H17.8393C17.3486 23.776 16.8686 23.7227 16.3993 23.616C15.9299 23.488 15.5033 23.2853 15.1193 23.008C14.7566 22.7093 14.4579 22.3253 14.2233 21.856C13.9886 21.3867 13.8713 20.8107 13.8713 20.128V11.52C13.8713 10.3467 14.1486 9.38667 14.7033 8.64C15.2793 7.89333 16.2073 7.52 17.4873 7.52C18.3406 7.52 19.0446 7.744 19.5993 8.192C20.1539 8.61867 20.4313 9.312 20.4313 10.272C20.4313 10.592 20.3886 10.8267 20.3033 10.976C20.0046 10.72 19.6846 10.592 19.3433 10.592C18.8739 10.592 18.5539 10.752 18.3833 11.072C18.2339 11.392 18.1593 11.7333 18.1593 12.096V23.776ZM21.0073 7.552C21.1139 7.53067 21.2206 7.52 21.3273 7.52H21.6473C22.7993 7.52 23.6953 7.81867 24.3353 8.416C24.9753 8.992 25.2953 9.824 25.2953 10.912V12.672C25.2953 14.1227 24.9326 15.2 24.2073 15.904C23.4819 16.608 22.5966 16.96 21.5513 16.96H21.3273C20.5166 16.9173 19.8553 16.6507 19.3433 16.16C18.8526 15.648 18.6073 15.04 18.6073 14.336C18.6073 14.2293 18.6073 14.1333 18.6073 14.048C18.6286 13.9627 18.6713 13.8347 18.7353 13.664C18.9059 13.8347 19.0553 13.9627 19.1833 14.048C19.3113 14.1333 19.5246 14.176 19.8233 14.176C20.3139 14.176 20.6339 14.0053 20.7833 13.664C20.9326 13.3013 21.0073 12.8853 21.0073 12.416V7.552ZM25.1673 20.672C25.1673 21.2693 25.0606 21.7707 24.8473 22.176C24.6553 22.56 24.3993 22.88 24.0793 23.136C23.7593 23.3707 23.4073 23.5413 23.0233 23.648C22.6393 23.7333 22.2659 23.776 21.9033 23.776C20.8153 23.776 20.0473 23.5093 19.5993 22.976C19.1513 22.4427 18.9273 21.8453 18.9273 21.184C18.9273 21.0773 18.9273 20.9493 18.9273 20.8C18.9486 20.6507 19.0019 20.4907 19.0873 20.32C19.3646 20.576 19.6846 20.704 20.0473 20.704C20.5593 20.6613 20.8579 20.4907 20.9433 20.192C21.0286 19.8933 21.0713 19.52 21.0713 19.072V17.888C21.3913 17.8027 21.7753 17.76 22.2233 17.76C22.7779 17.76 23.2366 17.8453 23.5993 18.016C23.9833 18.1867 24.2926 18.4107 24.5273 18.688C24.7619 18.9653 24.9219 19.2853 25.0073 19.648C25.1139 19.9893 25.1673 20.3307 25.1673 20.672ZM31.9955 15.776H31.7075C31.2169 15.776 30.7262 15.7227 30.2355 15.616C29.7662 15.488 29.3395 15.2853 28.9555 15.008C28.5929 14.7093 28.2942 14.3253 28.0595 13.856C27.8249 13.3867 27.7075 12.8107 27.7075 12.128V11.296C27.7075 10.528 27.8355 9.89867 28.0915 9.408C28.3475 8.91733 28.6782 8.53333 29.0835 8.256C29.4889 7.97867 29.9475 7.78667 30.4595 7.68C30.9715 7.57333 31.4835 7.52 31.9955 7.52V15.776ZM34.7155 15.52H35.0035C35.4942 15.52 35.9742 15.584 36.4435 15.712C36.9342 15.8187 37.3609 16.0213 37.7235 16.32C38.1075 16.5973 38.4169 16.9707 38.6515 17.44C38.8862 17.9093 39.0035 18.4853 39.0035 19.168V20C39.0035 20.768 38.8755 21.3973 38.6195 21.888C38.3635 22.3787 38.0329 22.7627 37.6275 23.04C37.2222 23.3173 36.7635 23.5093 36.2515 23.616C35.7395 23.7227 35.2275 23.776 34.7155 23.776V15.52ZM38.8755 10.336C38.8755 11.0187 38.7475 11.5627 38.4915 11.968C38.2355 12.3733 37.9262 12.6933 37.5635 12.928C37.2009 13.1627 36.8169 13.3227 36.4115 13.408C36.0062 13.472 35.6542 13.504 35.3555 13.504C35.0995 13.504 34.8862 13.4827 34.7155 13.44V11.968C34.7155 11.52 34.6089 11.1893 34.3955 10.976C34.1822 10.7627 33.9155 10.656 33.5955 10.656C33.1902 10.656 32.8489 10.784 32.5715 11.04C32.5075 10.8693 32.4649 10.72 32.4435 10.592C32.4435 10.4427 32.4435 10.2827 32.4435 10.112C32.4435 9.856 32.4862 9.568 32.5715 9.248C32.6569 8.90667 32.8169 8.59733 33.0515 8.32C33.2862 8.02133 33.6062 7.776 34.0115 7.584C34.4169 7.37067 34.9289 7.264 35.5475 7.264C36.1235 7.264 36.6142 7.36 37.0195 7.552C37.4462 7.72267 37.7875 7.95733 38.0435 8.256C38.3209 8.55467 38.5235 8.88533 38.6515 9.248C38.8009 9.61067 38.8755 9.97333 38.8755 10.336ZM27.8675 20.704C27.8675 20.0427 27.9955 19.5093 28.2515 19.104C28.5075 18.6773 28.8169 18.3467 29.1795 18.112C29.5422 17.8773 29.9262 17.728 30.3315 17.664C30.7369 17.5787 31.0889 17.536 31.3875 17.536C31.6435 17.536 31.8569 17.5573 32.0275 17.6V19.072C32.0275 19.52 32.1342 19.8507 32.3475 20.064C32.5609 20.2773 32.8275 20.384 33.1475 20.384C33.5315 20.384 33.8729 20.256 34.1715 20C34.2355 20.1707 34.2675 20.3307 34.2675 20.48C34.2889 20.608 34.2995 20.7573 34.2995 20.928C34.2995 21.184 34.2462 21.4827 34.1395 21.824C34.0542 22.144 33.8835 22.4533 33.6275 22.752C33.3929 23.0293 33.0729 23.2747 32.6675 23.488C32.2835 23.68 31.7929 23.776 31.1955 23.776C30.6195 23.776 30.1182 23.6907 29.6915 23.52C29.2862 23.328 28.9449 23.0827 28.6675 22.784C28.4115 22.4853 28.2089 22.1547 28.0595 21.792C27.9315 21.4293 27.8675 21.0667 27.8675 20.704ZM45.8468 18.88C45.8468 19.0933 45.8468 19.3173 45.8468 19.552C45.8681 19.7867 45.9108 20 45.9748 20.192C46.0601 20.384 46.1774 20.544 46.3268 20.672C46.4761 20.8 46.6894 20.864 46.9668 20.864C47.3081 20.864 47.5641 20.7787 47.7348 20.608C47.9268 20.416 48.0654 20.256 48.1508 20.128C48.1934 20.256 48.2254 20.448 48.2468 20.704C48.2894 20.96 48.3108 21.1733 48.3108 21.344C48.3108 22.1547 48.0334 22.7627 47.4788 23.168C46.9454 23.5733 46.2308 23.776 45.3348 23.776C44.1614 23.776 43.2334 23.4133 42.5508 22.688C41.8894 21.9627 41.5588 20.768 41.5588 19.104V4.416C41.5588 3.88267 41.6228 3.38133 41.7508 2.912C41.9001 2.44267 42.1241 2.03733 42.4228 1.696C42.7214 1.33333 43.1054 1.056 43.5748 0.864C44.0654 0.650667 44.6521 0.544001 45.3348 0.544001C45.4201 0.544001 45.5054 0.554667 45.5908 0.576C45.6761 0.576 45.7614 0.576 45.8468 0.576V18.88ZM46.3908 7.68H46.4548C46.4974 7.68 46.5934 7.68 46.7428 7.68C46.8921 7.65867 47.1268 7.648 47.4468 7.648H48.8868C48.9081 7.712 48.9188 7.872 48.9188 8.128C48.9188 8.93867 48.7268 9.57867 48.3428 10.048C47.9588 10.496 47.3081 10.72 46.3908 10.72V7.68ZM50.6175 2.592C50.6175 1.86667 50.8735 1.25867 51.3855 0.768C51.8975 0.256 52.5055 0 53.2095 0C53.9135 0 54.5109 0.256 55.0015 0.768C55.5135 1.25867 55.7695 1.86667 55.7695 2.592C55.7695 3.31733 55.5135 3.92533 55.0015 4.416C54.5109 4.90667 53.9135 5.152 53.2095 5.152C52.5055 5.152 51.8975 4.90667 51.3855 4.416C50.8735 3.92533 50.6175 3.31733 50.6175 2.592ZM51.0975 7.52H51.4495C52.5589 7.52 53.4869 7.81867 54.2335 8.416C55.0015 9.01333 55.3855 9.96267 55.3855 11.264V23.776H55.1935C54.7029 23.776 54.2122 23.712 53.7215 23.584C53.2522 23.456 52.8149 23.2533 52.4095 22.976C52.0255 22.6773 51.7055 22.304 51.4495 21.856C51.2149 21.3867 51.0975 20.8107 51.0975 20.128V7.52Z" fill="black"/>
<path d="M65.1913 0.544001H65.7033C66.2153 0.544001 66.7166 0.608 67.2073 0.736C67.6979 0.842667 68.1353 1.04533 68.5193 1.344C68.9033 1.62133 69.2126 2.00533 69.4473 2.496C69.6819 2.98667 69.7993 3.616 69.7993 4.384V19.968C69.7993 20.7573 69.6713 21.3973 69.4153 21.888C69.1806 22.3787 68.8606 22.7627 68.4553 23.04C68.0713 23.3173 67.6126 23.5093 67.0793 23.616C66.5673 23.7227 66.0446 23.776 65.5113 23.776H65.1913V0.544001ZM76.1353 23.776H75.8153C75.2606 23.776 74.7059 23.7227 74.1513 23.616C73.6179 23.5093 73.1273 23.3173 72.6793 23.04C72.2526 22.7627 71.9006 22.3787 71.6233 21.888C71.3459 21.3973 71.2073 20.7573 71.2073 19.968V12.224H71.7193C72.2526 12.224 72.7859 12.288 73.3193 12.416C73.8526 12.5227 74.3219 12.7253 74.7273 13.024C75.1539 13.3013 75.4953 13.6853 75.7513 14.176C76.0073 14.6667 76.1353 15.296 76.1353 16.064V23.776ZM76.4553 7.552C76.4553 8.832 76.1886 9.87733 75.6553 10.688C75.1219 11.4773 74.2686 11.872 73.0953 11.872C72.6686 11.872 72.2846 11.808 71.9433 11.68C71.6019 11.5307 71.3139 11.3493 71.0793 11.136C70.8446 10.9227 70.6633 10.6773 70.5353 10.4C70.4073 10.1227 70.3433 9.856 70.3433 9.6C70.3433 9.344 70.3539 9.14133 70.3753 8.992C70.3966 8.84267 70.4179 8.71467 70.4393 8.608C70.5459 8.736 70.6419 8.832 70.7273 8.896C70.8339 8.96 70.9726 8.992 71.1433 8.992C71.4419 8.97067 71.6233 8.85333 71.6873 8.64C71.7513 8.40533 71.7833 8.128 71.7833 7.808V0.576H72.1993C72.6473 0.576 73.1166 0.618667 73.6073 0.704C74.0979 0.789334 74.5566 0.970667 74.9833 1.248C75.4099 1.504 75.7619 1.89867 76.0393 2.432C76.3166 2.944 76.4553 3.63733 76.4553 4.512V7.552ZM83.3155 18.784C83.3155 19.04 83.3262 19.2853 83.3475 19.52C83.3902 19.7547 83.4542 19.968 83.5395 20.16C83.6462 20.3307 83.7849 20.48 83.9555 20.608C84.1475 20.7147 84.4035 20.768 84.7235 20.768C84.8942 20.768 85.0649 20.7467 85.2355 20.704C85.4275 20.64 85.5982 20.544 85.7475 20.416C85.8329 20.5867 85.8862 20.7573 85.9075 20.928C85.9289 21.0773 85.9395 21.2373 85.9395 21.408C85.9395 22.0907 85.6515 22.656 85.0755 23.104C84.4995 23.552 83.8062 23.776 82.9955 23.776C81.7155 23.776 80.7342 23.4347 80.0515 22.752C79.3689 22.0693 79.0275 21.216 79.0275 20.192V11.296C79.0275 10.592 79.1555 10.0053 79.4115 9.536C79.6889 9.04533 80.0302 8.65067 80.4355 8.352C80.8622 8.05333 81.3209 7.84 81.8115 7.712C82.3235 7.584 82.8249 7.52 83.3155 7.52V18.784ZM90.6115 20C90.6115 20.7467 90.4729 21.3653 90.1955 21.856C89.9395 22.3253 89.5982 22.7093 89.1715 23.008C88.7662 23.2853 88.3075 23.488 87.7955 23.616C87.2835 23.7227 86.7929 23.776 86.3235 23.776V12.512C86.3235 12.256 86.3022 12.0107 86.2595 11.776C86.2382 11.5413 86.1742 11.3387 86.0675 11.168C85.9822 10.976 85.8435 10.8267 85.6515 10.72C85.4809 10.592 85.2355 10.528 84.9155 10.528C84.7449 10.528 84.5635 10.56 84.3715 10.624C84.2009 10.6667 84.0409 10.752 83.8915 10.88C83.8062 10.7093 83.7529 10.5493 83.7315 10.4C83.7102 10.2293 83.6995 10.0587 83.6995 9.888C83.6995 9.20533 83.9875 8.64 84.5635 8.192C85.1395 7.744 85.8329 7.52 86.6435 7.52C87.9235 7.52 88.9049 7.85067 89.5875 8.512C90.2702 9.152 90.6115 10.08 90.6115 11.296V20ZM93.3363 2.592C93.3363 1.86667 93.5923 1.25867 94.1043 0.768C94.6163 0.256 95.2243 0 95.9283 0C96.6323 0 97.2296 0.256 97.7203 0.768C98.2323 1.25867 98.4883 1.86667 98.4883 2.592C98.4883 3.31733 98.2323 3.92533 97.7203 4.416C97.2296 4.90667 96.6323 5.152 95.9283 5.152C95.2243 5.152 94.6163 4.90667 94.1043 4.416C93.5923 3.92533 93.3363 3.31733 93.3363 2.592ZM93.8163 7.52H94.1683C95.2776 7.52 96.2056 7.81867 96.9523 8.416C97.7203 9.01333 98.1043 9.96267 98.1043 11.264V23.776H97.9123C97.4216 23.776 96.9309 23.712 96.4403 23.584C95.9709 23.456 95.5336 23.2533 95.1283 22.976C94.7443 22.6773 94.4243 22.304 94.1683 21.856C93.9336 21.3867 93.8163 20.8107 93.8163 20.128V7.52ZM108.667 0.544001H109.051C109.585 0.544001 110.086 0.608 110.555 0.736C111.046 0.864 111.462 1.07733 111.803 1.376C112.166 1.67467 112.443 2.09067 112.635 2.624C112.849 3.136 112.955 3.78667 112.955 4.576V20.32C112.955 20.832 112.849 21.3013 112.635 21.728C112.443 22.1547 112.166 22.5173 111.803 22.816C111.462 23.1147 111.046 23.3493 110.555 23.52C110.086 23.6907 109.574 23.776 109.019 23.776H108.667V0.544001ZM101.371 11.04C101.371 10.016 101.713 9.17333 102.395 8.512C103.078 7.85067 104.059 7.52 105.339 7.52C106.15 7.52 106.843 7.744 107.419 8.192C107.995 8.64 108.283 9.20533 108.283 9.888C108.283 10.0587 108.273 10.2293 108.251 10.4C108.23 10.5493 108.177 10.7093 108.091 10.88C107.793 10.6453 107.451 10.528 107.067 10.528H106.939C106.449 10.5707 106.107 10.752 105.915 11.072C105.745 11.392 105.659 11.7867 105.659 12.256V18.688C105.659 19.392 105.787 19.9147 106.043 20.256C106.299 20.5973 106.641 20.768 107.067 20.768C107.451 20.768 107.782 20.6507 108.059 20.416C108.209 20.7147 108.283 21.0453 108.283 21.408C108.283 22.0907 107.995 22.656 107.419 23.104C106.843 23.552 106.15 23.776 105.339 23.776C104.059 23.776 103.078 23.4453 102.395 22.784C101.713 22.1013 101.371 21.024 101.371 19.552V11.04ZM120.128 18.72C120.128 18.976 120.139 19.2213 120.16 19.456C120.203 19.6907 120.267 19.904 120.352 20.096C120.459 20.2667 120.597 20.416 120.768 20.544C120.96 20.6507 121.216 20.704 121.536 20.704C121.707 20.704 121.877 20.6827 122.048 20.64C122.24 20.576 122.411 20.48 122.56 20.352C122.645 20.5227 122.699 20.6933 122.72 20.864C122.741 21.0133 122.752 21.1733 122.752 21.344C122.752 22.0267 122.475 22.6027 121.92 23.072C121.365 23.5413 120.608 23.776 119.648 23.776C118.496 23.776 117.568 23.4347 116.864 22.752C116.181 22.0693 115.84 21.024 115.84 19.616V7.552H116.032C117.312 7.552 118.315 7.86133 119.04 8.48C119.765 9.07733 120.128 10.048 120.128 11.392V18.72ZM127.424 23.712H127.072C125.963 23.712 125.024 23.424 124.256 22.848C123.509 22.2507 123.136 21.2907 123.136 19.968V7.552H123.328C123.797 7.552 124.277 7.616 124.768 7.744C125.259 7.872 125.696 8.08533 126.08 8.384C126.485 8.66133 126.805 9.03467 127.04 9.504C127.296 9.97333 127.424 10.5387 127.424 11.2V23.712ZM130.309 0.544001H130.661C131.77 0.544001 132.698 0.842667 133.445 1.44C134.213 2.03733 134.597 2.98667 134.597 4.288V23.776H134.405C133.914 23.776 133.423 23.712 132.933 23.584C132.463 23.456 132.026 23.2533 131.621 22.976C131.237 22.6773 130.917 22.304 130.661 21.856C130.426 21.3867 130.309 20.8107 130.309 20.128V0.544001ZM144.761 12.512C144.761 12.256 144.74 12.0107 144.697 11.776C144.676 11.5413 144.612 11.3387 144.505 11.168C144.42 10.976 144.281 10.8267 144.089 10.72C143.918 10.592 143.673 10.528 143.353 10.528C143.182 10.528 143.001 10.56 142.809 10.624C142.638 10.6667 142.478 10.752 142.329 10.88C142.244 10.7093 142.19 10.5493 142.169 10.4C142.148 10.2293 142.137 10.0587 142.137 9.888C142.137 9.20533 142.425 8.64 143.001 8.192C143.577 7.744 144.27 7.52 145.081 7.52C146.361 7.52 147.342 7.85067 148.025 8.512C148.708 9.152 149.049 10.08 149.049 11.296V23.776C148.558 23.776 148.057 23.7227 147.545 23.616C147.054 23.488 146.596 23.2853 146.169 23.008C145.764 22.7093 145.422 22.3253 145.145 21.856C144.889 21.3653 144.761 20.7467 144.761 20V12.512ZM141.753 18.784C141.753 19.04 141.764 19.2853 141.785 19.52C141.828 19.7547 141.892 19.968 141.977 20.16C142.084 20.3307 142.222 20.48 142.393 20.608C142.585 20.7147 142.841 20.768 143.161 20.768C143.332 20.768 143.502 20.7467 143.673 20.704C143.865 20.64 144.036 20.544 144.185 20.416C144.27 20.5867 144.324 20.7573 144.345 20.928C144.366 21.0773 144.377 21.2373 144.377 21.408C144.377 22.0907 144.089 22.656 143.513 23.104C142.937 23.552 142.244 23.776 141.433 23.776C140.153 23.776 139.172 23.4347 138.489 22.752C137.806 22.0693 137.465 21.216 137.465 20.192V11.296C137.465 10.592 137.593 10.0053 137.849 9.536C138.126 9.04533 138.468 8.65067 138.873 8.352C139.3 8.05333 139.758 7.84 140.249 7.712C140.761 7.584 141.262 7.52 141.753 7.52V18.784ZM156.222 18.72C156.222 18.976 156.232 19.2213 156.254 19.456C156.296 19.6907 156.36 19.904 156.446 20.096C156.552 20.2667 156.691 20.416 156.862 20.544C157.054 20.6507 157.31 20.704 157.63 20.704C157.8 20.704 157.971 20.6827 158.142 20.64C158.334 20.576 158.504 20.48 158.654 20.352C158.739 20.5227 158.792 20.6933 158.814 20.864C158.835 21.0133 158.846 21.1733 158.846 21.344C158.846 22.0267 158.568 22.6027 158.014 23.072C157.459 23.5413 156.702 23.776 155.742 23.776C154.59 23.776 153.662 23.4347 152.958 22.752C152.275 22.0693 151.934 21.024 151.934 19.616V7.552H152.126C153.406 7.552 154.408 7.86133 155.134 8.48C155.859 9.07733 156.222 10.048 156.222 11.392V18.72ZM163.518 23.712H163.166C162.056 23.712 161.118 23.424 160.35 22.848C159.603 22.2507 159.23 21.2907 159.23 19.968V7.552H159.422C159.891 7.552 160.371 7.616 160.862 7.744C161.352 7.872 161.79 8.08533 162.174 8.384C162.579 8.66133 162.899 9.03467 163.134 9.504C163.39 9.97333 163.518 10.5387 163.518 11.2V23.712ZM166.403 0.544001H166.755C167.864 0.544001 168.792 0.842667 169.539 1.44C170.307 2.03733 170.691 2.98667 170.691 4.288V23.776H170.499C170.008 23.776 169.517 23.712 169.027 23.584C168.557 23.456 168.12 23.2533 167.715 22.976C167.331 22.6773 167.011 22.304 166.755 21.856C166.52 21.3867 166.403 20.8107 166.403 20.128V0.544001ZM173.399 2.592C173.399 1.86667 173.655 1.25867 174.167 0.768C174.679 0.256 175.287 0 175.991 0C176.695 0 177.292 0.256 177.783 0.768C178.295 1.25867 178.551 1.86667 178.551 2.592C178.551 3.31733 178.295 3.92533 177.783 4.416C177.292 4.90667 176.695 5.152 175.991 5.152C175.287 5.152 174.679 4.90667 174.167 4.416C173.655 3.92533 173.399 3.31733 173.399 2.592ZM173.879 7.52H174.231C175.34 7.52 176.268 7.81867 177.015 8.416C177.783 9.01333 178.167 9.96267 178.167 11.264V23.776H177.975C177.484 23.776 176.993 23.712 176.503 23.584C176.033 23.456 175.596 23.2533 175.191 22.976C174.807 22.6773 174.487 22.304 174.231 21.856C173.996 21.3867 173.879 20.8107 173.879 20.128V7.52ZM187.034 14.976C187.631 14.976 188.218 15.0613 188.794 15.232C189.37 15.3813 189.871 15.6267 190.298 15.968C190.724 16.3093 191.066 16.7573 191.322 17.312C191.599 17.8453 191.738 18.496 191.738 19.264V24C191.204 24 190.66 23.9147 190.106 23.744C189.551 23.552 189.039 23.2853 188.57 22.944C188.122 22.6027 187.748 22.1867 187.45 21.696C187.172 21.184 187.034 20.608 187.034 19.968V14.976ZM187.738 6.88C188.015 6.88 188.399 6.93333 188.89 7.04C189.38 7.12533 189.85 7.30667 190.298 7.584C190.767 7.86133 191.172 8.24533 191.514 8.736C191.855 9.22667 192.026 9.86667 192.026 10.656C192.026 11.168 191.962 11.6587 191.834 12.128C191.727 12.5973 191.556 13.0133 191.322 13.376C191.087 13.7173 190.767 13.9947 190.362 14.208C189.978 14.4213 189.519 14.528 188.986 14.528C188.111 14.528 187.471 14.2613 187.066 13.728C186.682 13.1733 186.49 12.5333 186.49 11.808V11.456C186.575 11.5627 186.639 11.648 186.682 11.712C186.746 11.7547 186.863 11.776 187.034 11.776C187.332 11.776 187.524 11.6373 187.61 11.36C187.695 11.0613 187.738 10.624 187.738 10.048V6.88ZM181.434 0.544001H181.786C182.895 0.544001 183.823 0.842667 184.57 1.44C185.338 2.03733 185.722 2.98667 185.722 4.288V23.776C185.636 23.776 185.562 23.776 185.498 23.776C185.434 23.7973 185.359 23.808 185.274 23.808C184.804 23.808 184.335 23.744 183.866 23.616C183.418 23.488 183.012 23.2747 182.65 22.976C182.287 22.6773 181.988 22.2933 181.754 21.824C181.54 21.3333 181.434 20.736 181.434 20.032V0.544001Z" fill="#0072CE"/>
</svg>
